<?xml version="1.0" encoding="UTF-8"?>
<svg width="212px" height="63px" viewBox="0 0 212 63" version="1.1" xmlns="http://www.w3.org/2000/svg" xmlns:xlink="http://www.w3.org/1999/xlink">
    <!-- Generator: Sketch 47.1 (45422) - http://www.bohemiancoding.com/sketch -->
    <title>curl-logo</title>
    <desc>Created with Sketch.</desc>
    <defs></defs>
    <g id="ICONS" stroke="none" stroke-width="1" fill="none" fill-rule="evenodd" opacity="0.87669837">
        <g id="curl-logo" fill-rule="nonzero" fill="#FFFFFF">
            <path d="M206.343394,8.59558324 C204.635462,8.59558324 203.253547,7.23511184 203.253547,5.5590338 C203.253547,3.88056248 204.635462,2.52248436 206.343394,2.52248436 C208.04889,2.52248436 209.433241,3.88056248 209.433241,5.5590338 C209.433241,7.23511184 208.04889,8.59558324 206.343394,8.59558324 M175.656606,60.4775095 C173.948674,60.4775095 172.566759,59.1170442 172.566759,57.4409662 C172.566759,55.7624949 173.948674,54.4044168 175.656606,54.4044168 C177.362103,54.4044168 178.744018,55.7624949 178.744018,57.4409662 C178.744018,59.1170442 177.362103,60.4775095 175.656606,60.4775095 M206.343394,0 C203.219484,0 200.686788,2.48900907 200.686788,5.5590338 C200.686788,6.21416151 200.85466,6.82385978 201.066325,7.40726259 L174.530147,52.104293 C171.965823,52.6326994 170,54.7630657 170,57.4409662 C170,60.5109848 172.532696,63 175.656606,63 C178.778081,63 181.310777,60.5109848 181.310777,57.4409662 C181.310777,56.8240881 181.142904,56.2598193 180.955568,55.7051113 L207.625556,10.8622317 C210.112031,10.2764417 212,8.1819379 212,5.5590338 C212,2.48900907 209.467298,0 206.343394,0" id="path4177"></path>
            <path d="M183.343722,8.59558324 C181.635895,8.59558324 180.25406,7.23511184 180.25406,5.5590338 C180.25406,3.88056248 181.635895,2.52248436 183.343722,2.52248436 C185.04912,2.52248436 186.430955,3.88056248 186.430955,5.5590338 C186.430955,7.23511184 185.04912,8.59558324 183.343722,8.59558324 M152.656284,60.4775095 C150.95088,60.4775095 149.566616,59.1170442 149.566616,57.4409662 C149.566616,55.7624949 150.95088,54.4044168 152.656284,54.4044168 C154.364111,54.4044168 155.745946,55.7624949 155.745946,57.4409662 C155.745946,59.1170442 154.364111,60.4775095 152.656284,60.4775095 M183.343722,0 C180.217564,0 177.687444,2.48900907 177.687444,5.5590338 C177.687444,6.21416151 177.855307,6.82385978 178.066965,7.40726259 L151.532325,52.104293 C148.965709,52.6326994 147,54.7630657 147,57.4409662 C147,60.5109848 149.532556,63 152.656284,63 C155.780007,63 158.312563,60.5109848 158.312563,57.4409662 C158.312563,56.8240881 158.1447,56.2598193 157.957368,55.7051113 L184.625816,10.8622317 C187.112141,10.2764417 189,8.1819379 189,5.5590338 C189,2.48900907 186.465015,0 183.343722,0" id="path4179"></path>
            <path d="M141.5,17.495697 C143.158279,17.495697 144.504303,18.841721 144.504303,20.5 C144.504303,22.158279 143.158279,23.5042969 141.5,23.5042969 C139.839353,23.5042969 138.495697,22.158279 138.495697,20.5 C138.495697,18.841721 139.839353,17.495697 141.5,17.495697 M141.5,26 C144.537417,26 147,23.5374167 147,20.5 C147,19.8920407 146.834407,19.3313962 146.652257,18.7825789 C145.923658,16.599137 143.927096,15 141.5,15 C141.11204,15 140.771395,15.1443003 140.404727,15.2223611 C137.911398,15.7427943 136,17.8505373 136,20.5 C136,23.5374167 138.462577,26 141.5,26" id="path4181"></path>
            <path d="M138.495697,40.5 C138.495697,38.8393531 139.841721,37.495697 141.5,37.495697 C143.158279,37.495697 144.504303,38.8393531 144.504303,40.5 C144.504303,42.158279 143.158279,43.5019351 141.5,43.5019351 C139.841721,43.5019351 138.495697,42.158279 138.495697,40.5 M147,40.5 C147,39.8896788 146.834407,39.3313962 146.652257,38.7825789 C145.923658,36.599143 143.929463,35 141.5,35 C141.11204,35 140.771395,35.1443003 140.404727,35.2199993 C137.911398,35.7427943 136,37.8505373 136,40.5 C136,43.5350549 138.462577,46 141.5,46 C144.537417,46 147,43.5350549 147,40.5" id="path4183"></path>
            <path d="M0,46.4522662 C0,50.8302797 0.822504838,52.9807136 4.24799558,55.7965284 L9.5313796,60.1841851 C12.8794581,62.9228544 14.5922035,63 18.7627868,63 L30.084324,63 C32.4647498,63 35,62.4792671 35,59.4416586 C35,56.3172613 32.174454,55.8736741 30.084324,55.8736741 L17.5048383,55.8736741 C16.0823887,55.8736741 14.6696157,55.1311475 13.4019906,54.0896818 L9.08625933,50.4541948 C7.96378214,49.5670203 7.15095383,48.8244937 7.15095383,47.4165863 L7.15095383,38.5834137 C7.15095383,37.1755063 7.96378214,36.4329797 9.08625933,35.536162 L13.4019906,31.900675 C14.6696157,30.8688525 16.0823887,30.1263259 17.5048383,30.1263259 L30.084324,30.1263259 C32.174454,30.1263259 35,29.6730955 35,26.5583414 C35,23.5207329 32.4647498,23 30.084324,23 L18.7627868,23 C14.5922035,23 12.8794581,23.0771456 9.5313796,25.8158149 L4.24799558,30.1938284 C0.822504838,33.0192864 0,35.1697203 0,39.5477338 L0,46.4522662 Z" id="path4165"></path>
            <path d="M73.9944324,27.8987464 C73.9944324,25.4493732 73.4721135,23 70.4252529,23 C67.3687198,23 66.8464008,25.4493732 66.8464008,27.8987464 L66.8464008,48.6027001 L56.3516588,55.2082932 C55.6842512,55.6518804 54.9394631,55.8736741 54.1172944,55.8736741 L51.7378414,55.8736741 C50.0257959,55.8736741 48.1686618,55.4300868 47.5689623,54.388621 C46.9692627,53.3567985 46.9015547,51.4185149 46.8241741,49.7888139 L46.079386,27.8987464 C46.0020054,25.5940212 45.6344476,23 42.5779145,23 C39.3085847,23 38.9313543,25.7483124 39.0087349,28.3423337 L39.7535231,50.753134 C39.8986117,54.6104147 39.8309037,57.6576663 43.0325254,60.4059788 C45.4119784,62.4021215 47.6463429,63 49.6582381,63 L54.9394631,63 C56.8739778,63 58.8084924,62.1128255 61.1202374,60.6277724 L66.9237814,56.8379942 L66.9237814,58.024108 C66.9237814,60.4734812 67.4461003,63 70.4929609,63 C74.2942822,63 73.9944324,59.364513 73.9944324,57.734812 L73.9944324,27.8987464 Z" id="path4168"></path>
            <path d="M77,58.1012536 C77,60.5506268 77.5225325,63 80.5706387,63 C83.6284213,63 84.1509538,60.5506268 84.1509538,58.1012536 L84.1509538,40.0684667 L94.1274537,31.8331726 C95.3950788,30.7917068 96.3627315,30.1263259 97.6980923,30.1263259 L99.7882223,30.1263259 C101.500968,30.1263259 103.213713,30.1263259 104.103954,31.3895853 C104.849046,32.4214079 104.849046,33.3182257 104.849046,34.5043394 C104.849046,36.7994214 105.894111,38.8823529 108.497097,38.8823529 C111.55488,38.8823529 112,36.3558341 112,33.9064609 C112,30.6470588 111.177495,28.1976856 108.797069,25.8158149 C106.861764,23.8871745 104.55875,23 101.80094,23 L96.0627592,23 C93.8274813,23 91.7470279,24.4079074 89.7343102,26.0376085 L84.1509538,30.6470588 L84.1509538,27.7444552 C84.1509538,25.3722276 83.4058612,23 80.5706387,23 C77.2999724,23 77,25.6711668 77,28.265188 L77,58.1012536 Z" id="path4171"></path>
            <path d="M124.721396,13.9125529 C124.721396,9.73307475 123.530937,9 119.436917,9 L111.916695,9 C109.526097,9 107,9.51410437 107,12.5130465 C107,15.5976728 109.826132,16.0356135 111.916695,16.0356135 L117.578638,16.0356135 L117.578638,55.9643865 L111.916695,55.9643865 C109.526097,55.9643865 107,56.4784908 107,59.4869535 C107,62.5620592 109.826132,63 111.916695,63 L130.083305,63 C132.173868,63 135,62.5620592 135,59.4869535 C135,56.4784908 132.473903,55.9643865 130.083305,55.9643865 L124.721396,55.9643865 L124.721396,13.9125529 Z" id="path4174"></path>
        </g>
    </g>
</svg>