<?xml version="1.0" encoding="UTF-8"?>
<svg width="261px" height="87px" viewBox="0 0 261 87" version="1.1" xmlns="http://www.w3.org/2000/svg" xmlns:xlink="http://www.w3.org/1999/xlink">
    <!-- Generator: Sketch 47.1 (45422) - http://www.bohemiancoding.com/sketch -->
    <title>Group 5</title>
    <desc>Created with Sketch.</desc>
    <defs>
        <path d="M7.92792793,28.0448718 C7.92792793,29.8995819 8.05555428,31.470079 8.31081081,32.7564103 C8.56606734,34.0427415 8.93393153,35.082261 9.41441441,35.875 C9.8948973,36.667739 10.4954919,37.2435879 11.2162162,37.6025641 C11.9369405,37.9615403 12.777773,38.1410256 13.7387387,38.1410256 C14.0690707,38.1410256 14.3543532,38.2606826 14.5945946,38.5 C14.834836,38.7393174 14.954955,39.0235026 14.954955,39.3525641 L14.954955,40.7884615 C14.954955,41.117523 14.834836,41.4017082 14.5945946,41.6410256 C14.3543532,41.8803431 14.0690707,42 13.7387387,42 C12.1771694,42 10.7807869,41.7008577 9.54954955,41.1025641 C8.31831216,40.5042705 7.28228649,39.6517149 6.44144144,38.5448718 C5.6005964,37.4380287 4.95495721,36.0918883 4.5045045,34.5064103 C4.0540518,32.9209322 3.82882883,31.1559926 3.82882883,29.2115385 C3.82882883,27.6858898 3.68618761,26.4369707 3.4009009,25.4647436 C3.11561419,24.4925165 2.46246757,23.7670964 1.44144144,23.2884615 C0.480475676,22.869656 0,22.2713714 0,21.4935897 L0,20.4615385 C0,19.6837568 0.480475676,19.0854722 1.44144144,18.6666667 C2.46246757,18.1880318 3.11561419,17.4700903 3.4009009,16.5128205 C3.68618761,15.5555508 3.82882883,14.3141102 3.82882883,12.7884615 C3.82882883,10.8440074 4.0540518,9.07906776 4.5045045,7.49358974 C4.95495721,5.90811173 5.6005964,4.56197135 6.44144144,3.45512821 C7.28228649,2.34828506 8.31831216,1.49572949 9.54954955,0.897435897 C10.7807869,0.299142308 12.1771694,0 13.7387387,0 C14.0690707,0 14.3543532,0.119656923 14.5945946,0.358974359 C14.834836,0.598291795 14.954955,0.882476987 14.954955,1.21153846 L14.954955,2.6474359 C14.954955,2.97649737 14.834836,3.26068256 14.5945946,3.5 C14.3543532,3.73931744 14.0690707,3.85897436 13.7387387,3.85897436 C12.777773,3.85897436 11.9369405,4.03845974 11.2162162,4.3974359 C10.4954919,4.75641205 9.8948973,5.33226099 9.41441441,6.125 C8.93393153,6.91773901 8.56606734,7.95725853 8.31081081,9.24358974 C8.05555428,10.529921 7.92792793,12.1004181 7.92792793,13.9551282 C7.92792793,15.6004356 7.66516779,17.0437972 7.13963964,18.2852564 C6.61411149,19.5267156 5.81081622,20.416664 4.72972973,20.9551282 C5.81081622,21.4935924 6.61411149,22.3984979 7.13963964,23.6698718 C7.66516779,24.9412457 7.92792793,26.3995644 7.92792793,28.0448718 Z M52.0720721,28.0448718 C52.0720721,26.3995644 52.3348322,24.9412457 52.8603604,23.6698718 C53.3858885,22.3984979 54.1891838,21.4935924 55.2702703,20.9551282 C54.1891838,20.416664 53.3858885,19.5267156 52.8603604,18.2852564 C52.3348322,17.0437972 52.0720721,15.6004356 52.0720721,13.9551282 C52.0720721,12.1004181 51.9444457,10.529921 51.6891892,9.24358974 C51.4339327,7.95725853 51.0660685,6.91773901 50.5855856,6.125 C50.1051027,5.33226099 49.4970007,4.75641205 48.7612613,4.3974359 C48.0255218,4.03845974 47.1921968,3.85897436 46.2612613,3.85897436 C45.9309293,3.85897436 45.6456468,3.73931744 45.4054054,3.5 C45.165164,3.26068256 45.045045,2.97649737 45.045045,2.6474359 L45.045045,1.21153846 C45.045045,0.882476987 45.165164,0.598291795 45.4054054,0.358974359 C45.6456468,0.119656923 45.9309293,0 46.2612613,0 C47.8228306,0 49.2192131,0.299142308 50.4504505,0.897435897 C51.6816878,1.49572949 52.7177135,2.34828506 53.5585586,3.45512821 C54.3994036,4.56197135 55.0450428,5.90811173 55.4954955,7.49358974 C55.9459482,9.07906776 56.1711712,10.8440074 56.1711712,12.7884615 C56.1711712,14.3141102 56.3138124,15.5555508 56.5990991,16.5128205 C56.8843858,17.4700903 57.5375324,18.1880318 58.5585586,18.6666667 C59.5195243,19.0854722 60,19.6837568 60,20.4615385 L60,21.4935897 C60,22.2713714 59.5195243,22.869656 58.5585586,23.2884615 C57.5375324,23.7670964 56.8843858,24.4925165 56.5990991,25.4647436 C56.3138124,26.4369707 56.1711712,27.6858898 56.1711712,29.2115385 C56.1711712,31.1559926 55.9459482,32.9209322 55.4954955,34.5064103 C55.0450428,36.0918883 54.3994036,37.4380287 53.5585586,38.5448718 C52.7177135,39.6517149 51.6816878,40.5042705 50.4504505,41.1025641 C49.2192131,41.7008577 47.8228306,42 46.2612613,42 C45.9309293,42 45.6456468,41.8803431 45.4054054,41.6410256 C45.165164,41.4017082 45.045045,41.117523 45.045045,40.7884615 L45.045045,39.3525641 C45.045045,39.0235026 45.165164,38.7393174 45.4054054,38.5 C45.6456468,38.2606826 45.9309293,38.1410256 46.2612613,38.1410256 C47.1921968,38.1410256 48.0255218,37.9615403 48.7612613,37.6025641 C49.4970007,37.2435879 50.1051027,36.667739 50.5855856,35.875 C51.0660685,35.082261 51.4339327,34.0427415 51.6891892,32.7564103 C51.9444457,31.470079 52.0720721,29.8995819 52.0720721,28.0448718 Z" id="path-1"></path>
    </defs>
    <g id="ICONS" stroke="none" stroke-width="1" fill="none" fill-rule="evenodd">
        <g id="Group-5" transform="translate(3.000000, 3.000000)">
            <g id="Group-2-Copy-3">
                <path d="M182.152302,34 L161.998743,34 L161.998743,44 L181.919876,44 L186.837137,38.8789717 L182.152302,34 Z M188.992213,34 L210.015206,34 L210.015206,44 L188.759788,44 L193.677048,38.8789717 L188.992213,34 Z" id="Combined-Shape" fill-opacity="0.75" fill="#FFFFFF"></path>
                <path d="M79.1535581,34 L59,34 L59,44 L78.921133,44 L83.8383934,38.8789717 L79.1535581,34 Z M85.9934695,34 L107.016462,34 L107.016462,44 L85.7610445,44 L90.6783048,38.8789717 L85.9934695,34 Z" id="Combined-Shape" fill-opacity="0.75" fill="#FFFFFF" transform="translate(83.008231, 39.000000) scale(-1, 1) translate(-83.008231, -39.000000) "></path>
                <g id="Group-2" transform="translate(105.000000, 18.000000)">
                    <g id="{-}">
                        <use fill="#FFFFFF" fill-rule="evenodd" xlink:href="#path-1"></use>
                        <use fill="black" fill-opacity="1" xlink:href="#path-1"></use>
                    </g>
                    <g id="Group-3" transform="translate(13.000000, 18.000000)" fill="#FFFFFF">
                        <ellipse id="Oval" cx="4.04761905" cy="4" rx="4.04761905" ry="4"></ellipse>
                        <ellipse id="Oval-Copy" cx="17" cy="4" rx="4.04761905" ry="4"></ellipse>
                        <ellipse id="Oval-Copy-2" cx="29.952381" cy="4" rx="4.04761905" ry="4"></ellipse>
                    </g>
                </g>
                <g id="Group-4-Copy-3">
                    <rect id="Rectangle-33-Copy" stroke="#FFFFFF" stroke-width="3" x="-1.5" y="-1.5" width="59" height="84" rx="4"></rect>
                    <path d="M9,8 L47,8 L47,8 C47.5522847,8 48,8.44771525 48,9 L48,24 L48,24 C48,24.5522847 47.5522847,25 47,25 L9,25 L9,25 C8.44771525,25 8,24.5522847 8,24 L8,9 L8,9 C8,8.44771525 8.44771525,8 9,8 Z" id="Rectangle-33-Copy-2" fill-opacity="0.400000006" fill="#FFFFFF" fill-rule="nonzero"></path>
                    <path d="M9,32 L47,32 L47,32 C47.5522847,32 48,32.4477153 48,33 L48,48 L48,48 C48,48.5522847 47.5522847,49 47,49 L9,49 L9,49 C8.44771525,49 8,48.5522847 8,48 L8,33 L8,33 C8,32.4477153 8.44771525,32 9,32 Z" id="Rectangle-33-Copy-4" fill-opacity="0.400000006" fill="#FFFFFF" fill-rule="nonzero"></path>
                    <path d="M9,56 L47,56 L47,56 C47.5522847,56 48,56.4477153 48,57 L48,72 L48,72 C48,72.5522847 47.5522847,73 47,73 L9,73 L9,73 C8.44771525,73 8,72.5522847 8,72 L8,57 L8,57 C8,56.4477153 8.44771525,56 9,56 Z" id="Rectangle-33-Copy-6" fill-opacity="0.400000006" fill="#FFFFFF" fill-rule="nonzero"></path>
                </g>
            </g>
            <g id="Group-4-Copy" transform="translate(209.000000, 2.000000)">
                <rect id="path-1" fill="#DCE3EE" x="1" y="1" width="48" height="73" rx="24"></rect>
                <rect id="Rectangle-33-Copy-7" stroke="#9EAFBF" stroke-width="4" x="16" y="37" width="17" height="17" rx="8.5"></rect>
                <rect id="Rectangle-path" stroke="#9EAFBF" stroke-width="4" x="2" y="2" width="45" height="70" rx="22.5"></rect>
                <ellipse id="Oval-2" stroke="#9EAFBF" stroke-width="4" cx="24.5" cy="14.5" rx="19.5" ry="12.5"></ellipse>
            </g>
        </g>
    </g>
</svg>