<?xml version="1.0" encoding="UTF-8"?>
<svg width="79px" height="108px" viewBox="0 0 79 108" version="1.1" xmlns="http://www.w3.org/2000/svg" xmlns:xlink="http://www.w3.org/1999/xlink">
    <!-- Generator: Sketch 47.1 (45422) - http://www.bohemiancoding.com/sketch -->
    <title>I_java Copy</title>
    <desc>Created with Sketch.</desc>
    <defs>
        <path d="M42.0145833,0 C46.8825532,9.88412926 24.5492199,16.0154615 22.4729167,24.2434285 C20.5710949,31.8195022 35.7158865,40.5936478 35.7333333,40.5936478 C33.4302083,37.4575089 31.7552083,34.9027837 29.4520833,30.0223853 C25.5611968,21.7768006 52.5182314,13.2493156 42.0145833,0 Z M58.0666667,13.5312159 C58.0666667,13.5312159 41.0723981,14.6411996 40.2,25.0891295 C39.8161481,29.740485 44.6666667,32.277588 44.80625,35.660392 C44.9283865,38.4265379 41.875,40.5936478 41.875,40.5936478 C41.875,40.5936478 46.8651064,39.8712793 48.575,35.660392 C50.459375,30.9914189 45.3471365,27.5733751 45.9229167,23.820578 C46.4638032,20.2263488 58.0666667,13.5312159 58.0666667,13.5312159 Z M26.38125,40.5936478 C26.38125,40.5936478 8.93333333,40.4879374 8.93333333,45.3859534 C8.93333333,50.5130168 31.7028635,50.7949172 48.0166667,47.6411561 C48.0166667,47.6411561 51.7505231,45.6326185 52.9020833,44.5402524 C42.2065115,46.7073624 18.5645833,45.9849939 18.5645833,44.1174019 C18.5645833,42.3907647 26.38125,40.5936478 26.38125,40.5936478 Z M61.1375,40.734598 C59.2182314,40.6465052 57.0895833,41.2631633 55.275,42.5669501 C59.04375,41.7388668 62.2541667,44.0821667 62.2541667,46.7954551 C62.2541667,52.8739299 53.6,58.635269 53.6,58.635269 C53.6,58.635269 67,57.0848172 67,47.0773554 C67,42.9369432 64.3304699,40.8755481 61.1375,40.734598 Z M20.2395833,49.6144584 C17.5177083,49.6144584 13.4,51.8872787 13.4,53.9839136 C13.4,58.2124185 33.9361968,61.4190371 49.1333333,55.252465 L43.8291667,51.8696611 C33.5174468,55.2877048 14.6213564,54.1777212 20.2395833,49.6144584 Z M24.0083333,58.635269 C20.2570301,58.635269 17.8666667,61.2780869 17.8666667,63.1456743 C17.8666667,68.9070135 40.2523449,69.0127239 49.1333333,63.1456743 L43.55,59.6219202 C36.9197917,62.6875886 20.1697917,63.0751993 24.0083333,58.635269 Z M7.81666667,67.5151295 C2.4776064,67.338944 0,70.0522325 0,72.3074351 C0,84.2881992 58.0666667,83.8477311 58.0666667,71.6026843 C58.0666667,69.5765245 55.8158865,68.5370204 54.9958333,68.0789301 C59.7416667,79.7954116 6.97916667,78.9320929 6.97916667,72.0255348 C6.97916667,70.4574653 9.70104167,68.9070135 13.2604167,69.629382 C13.2604167,69.629382 12.0565115,68.0965478 10.3291667,67.7970298 C9.4393218,67.638462 8.584375,67.5327471 7.81666667,67.5151295 Z M67,76.5359401 C57.7875,85.6448434 32.4182314,91.1771397 8.93333333,85.5567507 C32.5229167,95.2118371 66.8953147,87.7238607 67,76.5359401 Z" id="path-1"></path>
    </defs>
    <g id="ICONS" stroke="none" stroke-width="1" fill="none" fill-rule="evenodd">
        <g id="I_java-Copy" transform="translate(4.000000, 14.000000)" fill-rule="nonzero">
            <g id="Shape">
                <use fill="#FFFFFF" fill-rule="evenodd" xlink:href="#path-1"></use>
                <path stroke="#9EAFBF" stroke-width="4" d="M40.2203813,0.883651056 L31.9421958,-15.9247225 L43.5818338,-1.24246773 C46.7173439,2.71266885 47.2244748,6.74006025 45.4400995,10.7402049 C44.1499033,13.6325175 42.0553561,16.052459 38.13032,19.7295385 C31.6408086,25.8090876 30.4267241,27.4012599 31.2607963,29.1688296 C33.2844223,33.4569603 34.7533106,35.8802891 37.3453366,39.4098211 L39.6834826,42.5936478 L35.7333333,42.5936478 C34.7330563,42.5936478 30.1723955,39.5120147 27.0583497,36.7576458 C22.1049131,32.3763384 19.4577073,28.0404089 20.5337073,23.7540747 C21.3390914,20.5625014 23.8788622,18.0709952 29.1676784,14.3053811 C29.5001886,14.0686353 29.8497883,13.8219473 30.2660224,13.5299504 C30.5308527,13.3441665 30.816748,13.1441565 31.3662367,12.7598569 C39.5844704,7.00871204 41.8777655,4.24887309 40.2203813,0.883651056 Z M57.9363141,11.5354684 L66.4959429,10.9763947 L59.066243,15.2635112 C58.9798412,15.3133672 58.8104784,15.4127286 58.5701276,15.5563891 C58.1655036,15.7982375 57.7136208,16.0740859 57.2265135,16.3786714 C55.8360537,17.2481185 54.4463611,18.1707506 53.1556025,19.1024659 C52.0965976,19.8668932 51.1520966,20.603715 50.3537687,21.2964767 C48.8410596,22.6091539 47.9630797,23.7033368 47.8997844,24.1238828 C47.8402993,24.5115927 47.8982567,24.9549182 48.0916128,25.5197461 C48.2903198,26.1002052 48.4889414,26.5098284 49.2076198,27.8823219 C51.068491,31.4361141 51.5870952,33.541069 50.4280527,36.4128517 C49.6462971,38.3380504 48.2942421,39.8161594 46.567176,40.893827 C45.611818,41.4899584 44.6020937,41.9264587 43.593036,42.2337194 C42.9783902,42.4208806 42.4834067,42.5264216 42.1615336,42.573016 L33.9572268,43.7606726 L40.7174383,38.9626815 C40.7602207,38.9323172 40.8715015,38.8460558 41.0273934,38.7116137 C41.2991922,38.4772128 41.5724156,38.2082138 41.8233059,37.9152395 C42.4855433,37.1419197 42.8362663,36.3843337 42.8079504,35.7428471 C42.7890437,35.2846419 42.5707888,34.7398414 42.0825994,33.9805701 C41.9314998,33.7455679 41.7567864,33.4925347 41.5317285,33.1803321 C41.391637,32.9859957 40.8500154,32.2481905 40.8788685,32.2876875 C38.8345035,29.4891667 37.985919,27.6008882 38.2069359,24.9227094 C38.6573668,19.5283031 42.5113857,15.8849058 48.4070002,13.6499482 C50.4982484,12.8571808 52.7179343,12.2943152 54.9345551,11.9176977 C56.2662202,11.6914395 57.3122659,11.5762282 57.9363141,11.5354684 Z M23.705659,43.4075519 C25.8868745,43.6294453 28.6894334,43.7815408 31.7619905,43.8422304 C39.6582613,43.9981988 47.732027,43.5471553 52.5049189,42.5800839 L59.3330029,41.1965946 L54.2785115,45.9912677 C53.8310465,46.4157315 53.182949,46.8851017 52.3339839,47.4298681 C52.1235183,47.5649204 51.9022701,47.7034153 51.6714041,47.8448898 C51.0771184,48.2090676 50.4448868,48.5775637 49.8132414,48.9331065 C49.5925807,49.0573128 49.3874757,49.171188 49.2029232,49.2724375 C49.090891,49.3339009 49.0115562,49.3769731 48.9641347,49.4024921 L48.6956256,49.54693 L48.3962755,49.6047999 C40.1964991,51.189969 30.2709135,51.9451482 22.275356,51.6171835 C12.644907,51.2221583 6.93333333,49.5534315 6.93333333,45.3859534 C6.93333333,41.673036 10.8435856,40.0501853 17.391077,39.1708413 C19.2974453,38.9148114 21.3258489,38.7524741 23.3625871,38.6641901 C24.6357201,38.6090051 25.6760659,38.5914347 26.3653402,38.5935669 C26.3867089,38.5936456 26.3867089,38.5936456 26.393367,38.5936845 L43.5540514,38.6976547 L26.8293757,42.5427972 C26.7777175,42.5546739 26.6728613,42.5795532 26.5225595,42.6164803 C26.2677316,42.679088 25.9827073,42.7518821 25.6753239,42.8338685 C25.0084016,43.0117524 24.34219,43.2043843 23.705659,43.4075519 Z M61.2292018,38.7367014 L61.2257019,38.7365438 C65.7646446,38.9369104 69,42.1237745 69,47.0773554 C69,52.3308467 65.9881102,56.0533727 61.1787526,58.4057166 C59.5695169,59.1928229 57.8639973,59.7722783 56.16082,60.1813411 C55.1346926,60.4277926 54.3239745,60.5648445 53.8298771,60.6220142 L45.57126,61.5775805 L52.4916793,56.9704491 C52.5409299,56.9376615 52.6491108,56.8631095 52.807645,56.7496149 C53.0808789,56.5540068 53.3876779,56.3248974 53.7194173,56.0652142 C54.6695889,55.3214269 55.6200385,54.4884123 56.5010576,53.5924882 C58.8717612,51.1816774 60.2541667,48.8049169 60.2541667,46.7954551 C60.2541667,45.3346614 58.1562241,43.9815866 55.7042085,44.5203523 L46.2320952,46.6015991 L54.1079905,40.9427306 C56.2399168,39.4109314 58.8032677,38.6253531 61.2292018,38.7367014 Z M21.7681809,50.9494876 C22.7203603,51.2965401 24.280826,51.5878106 26.2185654,51.7412942 C31.6572568,52.1720796 38.6011294,51.495597 43.1998927,49.9712369 L44.1026943,49.6719837 L53.4748275,55.6491882 L49.885327,57.1057069 C35.1630318,63.0796017 11.4,61.1897049 11.4,53.9839136 C11.4,50.6283568 16.3718149,47.6144584 20.2395833,47.6144584 L25.8742233,47.6144584 L21.7681809,50.9494876 Z M25.9145848,59.4883938 C26.7966588,59.7459778 28.1910949,59.9154834 29.8863935,59.9434665 C34.3941964,60.0178736 39.8516801,59.1284987 42.7106261,57.8065824 L43.6977448,57.3501595 L52.8198277,63.1072897 L50.2357502,64.8144094 C40.3120681,71.370294 15.8666667,71.3221296 15.8666667,63.1456743 C15.8666667,59.7684246 19.6037481,56.635269 24.0083333,56.635269 L28.3812538,56.635269 L25.9145848,59.4883938 Z M9.19751702,72.0103799 C9.4061438,72.1618877 9.70048468,72.3305802 10.0752642,72.5035833 C11.2966205,73.0673774 13.1586218,73.5835832 15.5003597,74.0012901 C20.2252898,74.8440984 26.5353957,75.2255949 32.7060272,75.0368077 C39.2154687,74.8376547 45.0041257,74.0277908 48.8500319,72.7166913 C52.5193077,71.4658066 53.6898447,70.1819799 53.1421295,68.8297843 L51.0076512,63.5601986 L55.9711925,66.3328847 C55.9903241,66.3435718 56.4212475,66.5765557 56.5931804,66.6737536 C56.9325496,66.8656072 57.237999,67.0549466 57.5373293,67.266207 C59.082217,68.3565528 60.0666667,69.749985 60.0666667,71.6026843 C60.0666667,78.9758624 46.6288733,82.8663221 29.0530549,83.0396415 C11.5083882,83.2126537 -2,79.6091624 -2,72.3074351 C-2,68.3249825 2.1134656,65.3258389 7.88262945,65.5162176 L7.86255118,65.5156559 C8.70454586,65.5349783 9.63903226,65.6425438 10.6708637,65.8264352 C11.7033609,66.005468 12.6344125,66.4594268 13.472067,67.0917023 C14.0946546,67.5616418 14.5501971,68.033601 14.8332849,68.3940337 L18.1925591,72.6711234 L12.8626298,71.5894242 C11.5873413,71.3306068 10.4185386,71.4361992 9.58798481,71.8002803 C9.4344537,71.8675821 9.30352409,71.9394335 9.19751702,72.0103799 Z M65.5938055,75.1137527 L69.0453276,71.7010437 L68.9999125,76.5546533 C68.8703046,90.4061013 31.7141584,97.0418554 8.17574486,87.4077125 L9.39882721,83.611676 C30.9304534,88.7646094 56.2551268,84.3474158 65.5938055,75.1137527 Z"></path>
            </g>
        </g>
    </g>
</svg>