<?xml version="1.0" encoding="UTF-8"?>
<svg width="107px" height="93px" viewBox="0 0 107 93" version="1.1" xmlns="http://www.w3.org/2000/svg" xmlns:xlink="http://www.w3.org/1999/xlink">
    <!-- Generator: Sketch 47.1 (45422) - http://www.bohemiancoding.com/sketch -->
    <title>Group 8</title>
    <desc>Created with Sketch.</desc>
    <defs>
        <path d="M25.2916104,0.000454218573 C23.1807799,0.0105920594 21.1648848,0.192762853 19.3910236,0.510966919 C14.1658045,1.4465448 13.217166,3.40438946 13.217166,7.01542631 L13.217166,11.7846597 L25.5651875,11.7846597 L25.5651875,13.3742318 L13.2170639,13.3742318 L8.5829958,13.3742318 C4.99433898,13.3742318 1.85208229,15.5600744 0.869450784,19.7181409 C-0.264362649,24.4844778 -0.314994814,27.4591065 0.869450784,32.4358554 C1.74724512,36.1400983 3.8430697,38.779661 7.4318286,38.779661 L11.6772744,38.779661 L11.6772744,33.0622291 C11.6772744,28.9325072 15.2035598,25.2888845 19.3909215,25.2888845 L31.7245496,25.2888845 C35.157737,25.2888845 37.8983051,22.4245306 37.8983051,18.9303893 L37.8983051,7.01532286 C37.8983051,3.62473233 35.0754598,1.07682396 31.7245496,0.510863472 C29.6034089,0.152935621 27.4023388,-0.00978706965 25.2916104,0.000454218573 Z M18.6139832,3.83597183 C19.8893829,3.83597183 20.9311193,4.90872091 20.9311193,6.22767469 C20.9311193,7.54197335 19.8893829,8.60510182 18.6139832,8.60510182 C17.3336836,8.60510182 16.2968471,7.54197335 16.2968471,6.22767469 C16.2968471,4.90872091 17.3336836,3.83597183 18.6139832,3.83597183 Z" id="path-1"></path>
        <path d="M40.2694695,13.220339 L40.2694695,18.7344279 C40.2694695,23.0100232 36.6730241,26.60765 32.5716929,26.60765 L20.2630132,26.60765 C16.8916066,26.60765 14.1016949,29.5157078 14.1016949,32.9180748 L14.1016949,44.7431017 C14.1016949,48.1079977 17.0053995,50.0879038 20.2630132,51.0529104 C24.163857,52.2087625 27.9039443,52.4182921 32.5715911,51.0529104 C35.6737455,50.1482681 38.7328074,48.3261508 38.7328074,44.7431017 L38.7328074,40.0099495 L26.424637,40.0099495 L26.424637,38.432677 L38.7327056,38.432677 L44.8939219,38.432677 C48.4754938,38.432677 49.8103442,35.9155496 51.0554439,32.137138 C52.3420062,28.2468267 52.2874019,24.5058861 51.0554439,19.5161859 C50.1704675,15.9237948 48.4799762,13.2205443 44.8939219,13.2205443 L40.2694695,13.2205443 L40.2694695,13.220339 Z M33.347257,43.1651105 C34.6246507,43.1651105 35.6595851,44.2193289 35.6595851,45.5237305 C35.6595851,46.8325464 34.6246507,47.8976468 33.347257,47.8976468 C32.0745495,47.8976468 31.0351327,46.8325464 31.0351327,45.5237305 C31.0350308,44.2193289 32.0744477,43.1651105 33.347257,43.1651105 Z" id="path-2"></path>
    </defs>
    <g id="ICONS" stroke="none" stroke-width="1" fill="none" fill-rule="evenodd">
        <g id="Group-8">
            <g id="Group-4">
                <rect id="path-1" fill="#DCE3EE" x="0.885714286" y="0.885714286" width="60.2285714" height="91.2285714" rx="30.1142857"></rect>
                <rect id="Rectangle-33-Copy-7" stroke="#9EAFBF" stroke-width="4" x="20.3714286" y="46.0571429" width="21.2571429" height="21.2571429" rx="10.6285714"></rect>
                <rect id="Rectangle-path" stroke="#9EAFBF" stroke-width="4" x="2" y="2" width="58" height="89" rx="29"></rect>
                <ellipse id="Oval-2" stroke="#9EAFBF" stroke-width="5" cx="31.8857143" cy="18.6" rx="24.9571429" ry="16.1"></ellipse>
            </g>
            <g id="if_Python_logo_282803" transform="translate(52.000000, 27.000000)" fill-rule="nonzero">
                <g id="path1948_1_">
                    <use fill="#FFFFFF" fill-rule="evenodd" xlink:href="#path-1"></use>
                    <path stroke="#9EAFBF" stroke-width="3" d="M11.717166,11.8742318 L11.717166,7.01542631 C11.717166,2.26077056 13.5997623,0.0240403 19.1261737,-0.96546612 C21.0185374,-1.30492777 23.1239892,-1.48915249 25.2844064,-1.49952848 L25.2843325,-1.49952813 C27.5331161,-1.51043926 29.8153142,-1.3325126 31.9743579,-0.968188865 C36.17689,-0.258391533 39.3983051,2.98299201 39.3983051,7.01532286 L39.3983051,18.9303893 C39.3983051,23.2562197 35.983816,26.7888845 31.7245496,26.7888845 L19.3909215,26.7888845 C16.0676985,26.7888845 13.1772744,29.7248343 13.1772744,33.0622291 L13.1772744,40.279661 L7.4318286,40.279661 C3.27493683,40.279661 0.50581303,37.4065405 -0.589791208,32.7831489 C-1.80872081,27.6615068 -1.79836341,24.4514559 -0.59034061,19.373164 C0.511655727,14.7099978 4.12073064,11.8742318 8.5829958,11.8742318 L11.717166,11.8742318 Z M18.6139832,5.33597183 C18.1740357,5.33597183 17.7968471,5.72558498 17.7968471,6.22767469 C17.7968471,6.72174496 18.1705566,7.10510182 18.6139832,7.10510182 C19.0547061,7.10510182 19.4311193,6.71953477 19.4311193,6.22767469 C19.4311193,5.72780326 19.051229,5.33597183 18.6139832,5.33597183 Z"></path>
                </g>
                <g id="path1950_1_">
                    <use fill-opacity="0.75" fill="#FFFFFF" fill-rule="evenodd" xlink:href="#path-2"></use>
                    <path stroke="#9EAFBF" stroke-width="3" d="M40.2694695,13.220339 L41.7694695,13.220339 L41.7694695,13.2205443 L40.2694695,13.2205443 L40.2694695,13.220339 Z M40.2694695,13.220339 L40.2694695,11.7205443 L44.8939219,11.7205443 C48.9782845,11.7205443 51.349244,14.4378103 52.5117136,19.1566326 C53.8284118,24.4895489 53.8417596,28.4891699 52.480086,32.6066002 C50.7997795,37.7057017 48.9054338,39.932677 44.8939219,39.932677 L40.2328074,39.932677 L40.2328074,44.7431017 C40.2328074,48.7097849 37.4014723,51.2069121 32.9927236,52.4925796 C28.3054573,53.8637005 24.2923711,53.811306 19.8369668,52.4911331 C15.4684399,51.1970394 12.6016949,48.5754797 12.6016949,44.7431017 L12.6016949,32.9180748 C12.6016949,28.6795711 16.0700626,25.10765 20.2630132,25.10765 L32.5716929,25.10765 C35.8664494,25.10765 38.7694695,22.1592304 38.7694695,18.7344279 L38.7694695,13.220339 L40.2694695,13.220339 Z M33.347257,44.6651105 C32.9069735,44.6651105 32.5350952,45.0437902 32.5351327,45.5237305 C32.5351327,46.0119229 32.9110452,46.3976468 33.347257,46.3976468 C33.7861352,46.3976468 34.1595851,46.01396 34.1595851,45.5237305 C34.1595851,45.0418077 33.7901259,44.6651105 33.347257,44.6651105 Z"></path>
                </g>
            </g>
        </g>
    </g>
</svg>