<?xml version="1.0" encoding="UTF-8"?>
<svg width="108px" height="93px" viewBox="0 0 108 93" version="1.1" xmlns="http://www.w3.org/2000/svg" xmlns:xlink="http://www.w3.org/1999/xlink">
    <!-- Generator: Sketch 47.1 (45422) - http://www.bohemiancoding.com/sketch -->
    <title>Group 8</title>
    <desc>Created with Sketch.</desc>
    <defs>
        <path d="M30.7270833,0 C34.2872404,7.24836146 17.9539071,11.7446718 16.4354167,17.7785142 C15.0445321,23.3343016 26.1205737,29.7686751 26.1333333,29.7686751 C24.4489583,27.4688399 23.2239583,25.5953747 21.5395833,22.0164159 C18.6940096,15.9696538 38.4088558,9.71616477 30.7270833,0 Z M42.4666667,9.92289166 C42.4666667,9.92289166 30.0380225,10.7368797 29.4,18.398695 C29.1192725,21.809689 32.6666667,23.6702312 32.76875,26.1509541 C32.8580737,28.1794611 30.625,29.7686751 30.625,29.7686751 C30.625,29.7686751 34.2744808,29.2389382 35.525,26.1509541 C36.903125,22.7270405 33.1643237,20.2204751 33.5854167,17.4684239 C33.9809904,14.8326558 42.4666667,9.92289166 42.4666667,9.92289166 Z M19.29375,29.7686751 C19.29375,29.7686751 6.53333333,29.6911541 6.53333333,33.2830325 C6.53333333,37.042879 23.1856763,37.2496059 35.1166667,34.9368478 C35.1166667,34.9368478 37.8473975,33.4639202 38.6895833,32.6628518 C30.8674487,34.2520658 13.5770833,33.7223289 13.5770833,32.3527614 C13.5770833,31.0865608 19.29375,29.7686751 19.29375,29.7686751 Z M44.7125,29.8720385 C43.3088558,29.8074371 41.7520833,30.2596531 40.425,31.2157634 C43.18125,30.6085023 45.5291667,32.3269222 45.5291667,34.3166671 C45.5291667,38.7742153 39.2,42.9991973 39.2,42.9991973 C39.2,42.9991973 49,41.8621993 49,34.523394 C49,31.4870917 47.0476571,29.9754019 44.7125,29.8720385 Z M14.8020833,36.3839362 C12.8114583,36.3839362 9.8,38.050671 9.8,39.5882033 C9.8,42.6891069 24.8190096,45.0406272 35.9333333,40.5184743 L32.0541667,38.0377515 C24.5127596,40.5443169 10.6932308,39.7303289 14.8020833,36.3839362 Z M17.5583333,42.9991973 C14.8148429,42.9991973 13.0666667,44.9372637 13.0666667,46.3068278 C13.0666667,50.5318099 29.4382821,50.6093309 35.9333333,46.3068278 L31.85,43.7227415 C27.0010417,45.9708983 14.7510417,46.2551462 17.5583333,42.9991973 Z M5.71666667,49.511095 C1.8119808,49.3818923 0,51.3716372 0,53.0254524 C0,61.8113461 42.4666667,61.4883361 42.4666667,52.5086351 C42.4666667,51.0227846 40.8205737,50.2604816 40.2208333,49.9245487 C43.6916667,58.5166352 5.10416667,57.8835348 5.10416667,52.8187255 C5.10416667,51.6688079 7.09479167,50.5318099 9.69791667,51.0615468 C9.69791667,51.0615468 8.81744873,49.9374684 7.55416667,49.7178218 C6.9033846,49.6015388 6.278125,49.5240145 5.71666667,49.511095 Z M49,56.1263561 C42.2625,62.8062185 23.7088558,66.8632358 6.53333333,62.7416172 C23.7854167,69.8220139 48.9234391,64.3308312 49,56.1263561 Z" id="path-1"></path>
    </defs>
    <g id="ICONS" stroke="none" stroke-width="1" fill="none" fill-rule="evenodd">
        <g id="Group-8">
            <g id="Group-4">
                <rect id="path-1" fill="#DCE3EE" x="0.885714286" y="0.885714286" width="60.2285714" height="91.2285714" rx="30.1142857"></rect>
                <rect id="Rectangle-33-Copy-7" stroke="#9EAFBF" stroke-width="4" x="20.3714286" y="46.0571429" width="21.2571429" height="21.2571429" rx="10.6285714"></rect>
                <rect id="Rectangle-path" stroke="#9EAFBF" stroke-width="4" x="2" y="2" width="58" height="89" rx="29"></rect>
                <ellipse id="Oval-2" stroke="#9EAFBF" stroke-width="5" cx="31.8857143" cy="18.6" rx="24.9571429" ry="16.1"></ellipse>
            </g>
            <g id="I_java-Copy" transform="translate(48.000000, 16.000000)" fill-rule="nonzero">
                <g id="Shape">
                    <use fill="#FFFFFF" fill-rule="evenodd" xlink:href="#path-1"></use>
                    <path stroke="#9EAFBF" stroke-width="4" d="M28.9319314,0.881719662 L20.6621911,-15.9551967 L32.2959755,-1.24039402 C34.7117589,1.81517025 35.1089483,4.97804154 33.7238389,8.09157619 C32.7422646,10.2980197 31.1765463,12.1118994 28.2556815,14.8556901 C23.756477,19.0821353 22.8994623,20.2090981 23.3491897,21.164756 C24.8139978,24.2771792 25.8706629,26.0251778 27.7468693,28.5869383 L30.0771397,31.7686751 L26.1333333,31.7686751 C25.2068993,31.7686751 21.8283447,29.4795778 19.4309395,27.3533064 C15.6712052,24.018778 13.6446914,20.6904645 14.4958926,17.2904092 C15.1278872,14.7791284 17.0425439,12.8957459 21.0178509,10.0576429 C21.2621769,9.88321055 21.5188279,9.70161709 21.8241826,9.48682154 C22.0181971,9.35034604 22.2276269,9.20343199 22.629324,8.92173007 C28.4090456,4.86605746 29.9660653,2.9871818 28.9319314,0.881719662 Z M42.3359609,7.92716723 L50.8761754,7.36784375 L43.4682814,11.6540092 C43.4074144,11.6892265 43.2859245,11.7606959 43.1125934,11.8645798 C42.8196657,12.0401425 42.4922436,12.2405586 42.1391702,12.4619343 C41.1316588,13.09364 40.1249127,13.7638485 39.1915653,14.4394051 C38.4291853,14.9912154 37.7506972,15.5219562 37.1800793,16.0184663 C36.6177745,16.5077429 36.1758615,16.9507206 35.8770684,17.3241049 C35.656353,17.5999201 35.5613099,17.7782947 35.5624077,17.7709244 C35.5330923,17.9625146 35.5646092,18.2042478 35.6803682,18.5433208 C35.8134137,18.9330283 35.9533107,19.2223272 36.4647007,20.20161 C37.8926036,22.9359628 38.3028758,24.6057415 37.378764,26.9016599 C36.7616961,28.4254235 35.6963152,29.5933008 34.3431062,30.4399839 C33.0726797,31.2348711 31.8273509,31.6151088 30.9122972,31.7479326 L22.7245641,32.9364151 L29.4653465,28.1391954 C29.6110247,28.0355205 29.8959107,27.7891646 30.1773318,27.4596441 C30.5823026,26.9854575 30.7842936,26.5479557 30.7704412,26.2331858 C30.7611596,26.0076334 30.6342718,25.6900383 30.3235383,25.2054457 C30.2188465,25.0421776 30.0961095,24.8639369 29.936577,24.6420296 C29.8357081,24.5017225 29.4412511,23.962925 29.4610865,23.9901515 C27.8965144,21.842589 27.2318571,20.3595624 27.4068985,18.2327234 C27.7567927,14.030952 30.7260396,11.216336 35.2099858,9.51189989 C36.7754679,8.91682935 38.4318307,8.49566769 40.085129,8.21399774 C41.0788232,8.04470355 41.8620339,7.95820609 42.3359609,7.92716723 Z M20.5625813,31.5286243 C21.4077518,31.5691543 22.3064025,31.5992582 23.2396369,31.6177418 C28.9781835,31.7313989 34.8472807,31.4026277 38.291381,30.7028939 L45.1080975,29.3179495 L40.0679791,34.1119981 C39.7099251,34.4525711 39.2137754,34.8128743 38.5663676,35.2294353 C38.4091788,35.3305751 38.2442396,35.4341032 38.0723442,35.5397271 C37.6314167,35.8106624 37.1634979,36.0841309 36.6961651,36.3479007 C36.4157693,36.5061604 36.1960255,36.6270447 36.0661324,36.6971077 L35.7972222,36.842155 L35.4972711,36.9002989 C29.4593658,38.0707143 22.1583333,38.6277183 16.2686881,38.3854774 C8.88438726,38.0817612 4.53333333,36.8070727 4.53333333,33.2830325 C4.53333333,30.1431131 7.5662476,28.8809542 12.6466154,28.1967918 C14.0587708,28.0066198 15.557897,27.8863152 17.0625675,27.8209166 C18.002708,27.7800546 18.7717897,27.7670302 19.2837933,27.7686183 C19.3002372,27.768679 19.3002372,27.768679 19.3059,27.768712 L36.4211367,27.8726889 L20.5625813,31.5286243 Z M44.8044508,27.8741534 L44.8009414,27.873995 C48.4019279,28.033389 51,30.599485 51,34.523394 C51,38.6077431 48.6643133,41.5023754 44.9806807,43.3090095 C43.7649864,43.9052456 42.4810878,44.3426409 41.1995214,44.6512804 C40.42632,44.8374903 39.8122825,44.9415758 39.4304943,44.985871 L31.1892724,45.9420192 L38.0895922,41.3357687 C38.246892,41.2307646 38.5519284,41.0117949 38.9540593,40.6961532 C39.6318131,40.1641688 40.3098544,39.5682874 40.9366539,38.9291494 C42.5818742,37.251543 43.5291667,35.6184376 43.5291667,34.3166671 C43.5291667,33.6145116 42.335786,32.8427426 40.8553225,33.1689205 L31.4015551,35.2517885 L39.2558991,29.5930487 C40.9123163,28.3996665 42.9066507,27.7868089 44.8044508,27.8741534 Z M17.0628319,37.1220867 C17.6497169,37.2431682 18.3822836,37.345636 19.2176252,37.4119814 C23.1267231,37.7224541 28.1332443,37.233384 31.4233505,36.1398392 L32.3282895,35.8390613 L40.2656257,40.9149792 L36.6870829,42.3710028 C25.6128352,46.8768497 7.8,45.4563228 7.8,39.5882033 C7.8,36.7635394 11.7148104,34.3839362 14.8020833,34.3839362 L20.4248571,34.3839362 L17.0628319,37.1220867 Z M19.9507796,43.2871892 C20.478261,43.3629991 21.1301946,43.4131016 21.8661708,43.4252829 C25.0877663,43.4786042 29.0009602,42.839158 31.0087457,41.9082743 L31.9980531,41.4495947 L39.6127717,46.268474 L37.037836,47.9741832 C29.48812,52.9753255 11.0666667,52.9389313 11.0666667,46.3068278 C11.0666667,43.514179 14.0582789,40.9991973 17.5583333,40.9991973 L21.9234951,40.9991973 L19.9507796,43.2871892 Z M8.19907937,52.93216 C9.01872687,53.230167 10.1164892,53.5075536 11.4313639,53.7427322 C14.8475152,54.3537455 19.4253939,54.6312682 23.9027359,54.4939135 C28.6140996,54.3493795 32.7980358,53.7624318 35.5511938,52.8213048 C37.9837233,51.98978 38.6168209,51.2935191 38.366421,50.6736515 L36.2361964,45.4002567 L41.1982134,48.1796338 C41.2074074,48.1847836 41.5241931,48.3565237 41.6554969,48.4309549 C41.9181771,48.5798585 42.1562465,48.7278325 42.3914598,48.8942923 C43.6485634,49.783941 44.4666667,50.9450703 44.4666667,52.5086351 C44.4666667,58.3854064 34.431218,61.2987379 21.2531085,61.429044 C8.09024322,61.5591994 -2,58.8602066 -2,53.0254524 C-2,49.7667663 1.28733261,47.3634375 5.78280875,47.512189 L5.76267597,47.5116242 C6.40937387,47.5265052 7.11933439,47.6084487 7.89676621,47.7473839 C8.74611778,47.8950605 9.50259278,48.2649035 10.1784998,48.7764776 C10.6753255,49.1525104 11.0391525,49.5304744 11.2724137,49.8282751 L14.6219599,54.1045837 L9.29909033,53.0213778 C8.90793374,52.9417773 8.53581408,52.9149261 8.19907937,52.93216 Z M47.5918745,54.7060805 L51.0452907,51.2822074 L50.9999129,56.1450185 C50.9001845,66.8321902 23.2831544,71.7777647 5.77398022,64.5918558 L7.00002498,60.7968295 C22.5805498,64.5356958 40.9110607,61.3297417 47.5918745,54.7060805 Z"></path>
                </g>
            </g>
        </g>
    </g>
</svg>